<svg height="512" viewBox="0 0 512 512" width="512" xmlns="http://www.w3.org/2000/svg"><g id="BULINE"><circle cx="256" cy="256.05" fill="#9fc4e2" r="256"/></g><g id="Icons"><g fill="#bad6f2"><circle cx="288.63" cy="108.58" r="49.13"/><circle cx="115.47" cy="323.29" r="55.84"/><circle cx="455.63" cy="170.25" r="20.3"/><circle cx="61.72" cy="154.19" r="20.3"/><circle cx="263.29" cy="458.22" r="20.3"/><circle cx="201.69" cy="264.3" r="22.44"/></g><path d="m198.75 109.19v27.86l-60.6.06v-27.87a7.23 7.23 0 0 1 7.22-7.23l46.15-.05a7.24 7.24 0 0 1 7.23 7.23z" fill="#b9b9b9"/><path d="m198.75 109.19v27.86h-50.51v-27.87a7.2 7.2 0 0 1 7.21-7.23h36.06a7.24 7.24 0 0 1 7.24 7.24z" fill="#cbcbcb"/><path d="m191.46 46.33.06 55.63h-43.28l-.08-75.52a8.56 8.56 0 0 1 11.59-8l2.26.85 14.66 5.58a23 23 0 0 1 14.79 21.46z" fill="#a03573"/><path d="m191.46 46.33.06 55.63h-33.28l-.07-75.52a8.49 8.49 0 0 1 3.83-7.12l11.4 4.34 3.26 1.24a23 23 0 0 1 14.79 21.43z" fill="#ad3874"/><path d="m141.1 132.2h54.08a5.64 5.64 0 0 1 5.64 5.64v.87a0 0 0 0 1 0 0h-65.36a0 0 0 0 1 0 0v-.87a5.64 5.64 0 0 1 5.64-5.64z" fill="#b9b9b9"/><path d="m181.4 27.37.07 74.6h-8l-.07-78.31 3.26 1.24a22.85 22.85 0 0 1 4.74 2.47z" fill="#c14387"/><ellipse cx="169.57" cy="31.26" fill="#c14387" rx="10.85" ry="22.19" transform="matrix(.419 -.908 .908 .419 70.17 172.15)"/><path d="m208.87 148.11.13 125.07a23.24 23.24 0 0 1 -23.21 23.25h-34.33a23.23 23.23 0 0 1 -23.24-23.21l-.12-125.07a11.06 11.06 0 0 1 11-11.07l58.66-.05a11.06 11.06 0 0 1 11.11 11.08z" fill="#515ba8"/><path d="m208.87 148.11.13 125.07a23.24 23.24 0 0 1 -23.21 23.25h-20.87a23.23 23.23 0 0 1 -23.24-23.21l-.12-125.07a11.06 11.06 0 0 1 11-11.07h45.2a11.06 11.06 0 0 1 11.11 11.03z" fill="#5c66c7"/><path d="m208.89 176.38.08 82.35h-.65c-10.92 0-19.78-18.42-19.8-41.18s8.8-41.21 19.72-41.22c.22.02.45.03.65.05z" fill="#c14387"/><path d="m422.33 259.64c0 20.35-44.3 36.82-98.95 36.82-37.67 0-70.44-7.83-87.14-19.37-7.53-5.18-11.8-11.13-11.8-17.45 0-4.38 2.07-8.6 5.85-12.49a38.67 38.67 0 0 1 6-5c16.7-11.53 49.47-19.37 87.14-19.37 54.57.05 98.9 16.53 98.9 36.86z" fill="#5c66c7"/><path d="m241.04 265.49-4.8-1.69-11.8-4.16v-22.46l5.85 9.97 5.95 10.14z" fill="#5c66c7"/><path d="m422.33 237.18v22.47h-15.82l-1.85-15.16z" fill="#5c66c7"/><path d="m422.33 237.18c0 19.59-41.15 35.61-93 36.75q-2.94.06-5.91.06c-54.64 0-98.94-16.48-98.94-36.81s44.3-36.82 98.94-36.82q3 0 5.91.06c51.85 1.14 93 17.16 93 36.76z" fill="#5461a5"/><path d="m422.33 237.18c0 19.59-41.15 35.61-93 36.75l-4.56-.13c-49.73-1.95-88.49-17.6-88.49-36.62s38.83-34.71 88.64-36.63c1.46-.05 2.93-.1 4.41-.13 51.85 1.14 93 17.16 93 36.76z" fill="#717dd3"/><path d="m413.5 237.18c0 19.05-38.91 34.73-88.77 36.62-49.73-1.95-88.49-17.6-88.49-36.62s38.83-34.71 88.64-36.63c49.79 1.93 88.62 17.59 88.62 36.63z" fill="#5c66c7"/><path d="m400.89 236.66c0 15.22-31.75 27.71-72 28.76-1.82.05-3.67.07-5.53.07-42.8 0-77.5-12.91-77.5-28.83s34.7-28.84 77.5-28.84c1.86 0 3.71 0 5.53.07 40.25 1.11 72 13.54 72 28.77z" fill="#ad3f80"/><path d="m400.89 236.66c0 15.22-31.75 27.71-72 28.76-40.23-1.05-72-13.54-72-28.76s31.75-27.71 72-28.77c40.25 1.11 72 13.54 72 28.77z" fill="#c14387"/><path d="m236.24 242.2v34.89c-7.53-5.18-11.8-11.13-11.8-17.45v-22.46l5.85 10a38.67 38.67 0 0 1 5.95-4.98z" fill="#5461a5"/><ellipse cx="356.39" cy="233.62" fill="#cd68a4" rx="24.32" ry="9.77"/><ellipse cx="303.66" cy="229.42" fill="#d7e6f2" rx="6.76" ry="20.54" transform="matrix(.823 -.569 .569 .823 -76.58 213.38)"/><ellipse cx="303.66" cy="229.42" fill="#d7e6f2" rx="20.54" ry="6.76" transform="matrix(.823 -.569 .569 .823 -76.58 213.38)"/><path d="m448.33 370.59c-52.47 94.05-148 105.24-184.57 106.44-6.65.23-10.44.13-10.44.13-151.66 0-189.65-106.57-189.65-106.57 25.6-5.72 59-7.46 127.65-7.29 128.78.29 257.01 7.29 257.01 7.29z" fill="#8e346d"/><path d="m448.33 370.59c-52.47 94.05-148 105.24-184.57 106.44-145.76-3.77-181.36-106.44-181.36-106.44 23.25-5.19 48.08-7.11 108.92-7.29 128.78.29 257.01 7.29 257.01 7.29z" fill="#ad3874"/><path d="m63.67 370.59s44.49-32.82 136.68-41.84c32.21-3.15 61.17 21 62.31 53.34v2.34c.04 0-25.02 44.21-198.99-13.84z" fill="#8e346d"/><path d="m448.33 370.59s-44.48-32.82-136.67-41.84c-32.21-3.15-61.17 21-62.31 53.34v2.34c-.04 0 4.05 44.88 198.98-13.84z" fill="#8e346d"/><path d="m63.67 370.59s44.49-46.65 136.68-55.68c32.21-3.15 61.17 21 62.31 53.34v2.34c.04 0-.03 43.32-198.99 0z" fill="#ad3874"/><path d="m448.33 370.59s-44.48-46.65-136.67-55.68c-32.21-3.15-61.17 21-62.31 53.34v2.34c-.04 0 .03 43.32 198.98 0z" fill="#ad3874"/><ellipse cx="321.69" cy="344.3" fill="#bd4586" rx="31.56" ry="13.62"/><ellipse cx="345.55" cy="425.95" fill="#d7e6f2" rx="7.98" ry="24.24" transform="matrix(.823 -.569 .569 .823 -180.91 272.07)"/><ellipse cx="345.55" cy="425.95" fill="#d7e6f2" rx="24.24" ry="7.98" transform="matrix(.823 -.569 .569 .823 -180.91 272.07)"/></g></svg>